<svg xmlns="http://www.w3.org/2000/svg" width="78" height="76" fill="none" viewBox="0 0 78 76"><g filter="url(#filter0_d)"><path fill="#fff" d="M73 1H5C3.34315 1 2 2.34315 2 4V70C2 71.6569 3.34315 73 5 73H73C74.6569 73 76 71.6569 76 70V4C76 2.34315 74.6569 1 73 1Z"/></g><rect width="54" height="21" x="12" y="41" fill="#CCCED0" rx="1"/><path fill="#AAAEB1" d="M12 12C12 11.4477 12.4477 11 13 11H65C65.5523 11 66 11.4477 66 12V38C66 38.5523 65.5523 39 65 39H13C12.4477 39 12 38.5523 12 38V12Z"/><path fill="#CCCED0" d="M12 65C12 64.4477 12.4477 64 13 64H65C65.5523 64 66 64.4477 66 65V73H12V65Z"/><defs><filter id="filter0_d" width="78" height="76" x="0" y="0" color-interpolation-filters="sRGB" filterUnits="userSpaceOnUse"><feFlood flood-opacity="0" result="BackgroundImageFix"/><feColorMatrix in="SourceAlpha" result="hardAlpha" type="matrix" values="0 0 0 0 0 0 0 0 0 0 0 0 0 0 0 0 0 0 127 0"/><feOffset dy="1"/><feGaussianBlur stdDeviation="1"/><feColorMatrix type="matrix" values="0 0 0 0 0 0 0 0 0 0 0 0 0 0 0 0 0 0 0.12 0"/><feBlend in2="BackgroundImageFix" mode="normal" result="effect1_dropShadow"/><feBlend in="SourceGraphic" in2="effect1_dropShadow" mode="normal" result="shape"/></filter></defs></svg>